<?xml version="1.0" standalone="no"?>
<!DOCTYPE svg PUBLIC "-//W3C//DTD SVG 20010904//EN"
 "http://www.w3.org/TR/2001/REC-SVG-20010904/DTD/svg10.dtd">
<svg version="1.0" xmlns="http://www.w3.org/2000/svg"
 width="128.000000pt" height="128.000000pt" viewBox="0 0 128.000000 128.000000"
 preserveAspectRatio="xMidYMid meet">
<metadata>
Created by potrace 1.14, written by Peter Selinger 2001-2017
</metadata>
<g transform="translate(0.000000,128.000000) scale(0.100000,-0.100000)"
fill="#000000" stroke="none">
<path d="M214 1109 c-11 -6 -28 -23 -37 -39 -15 -25 -17 -72 -17 -429 0 -266
4 -408 11 -424 26 -56 32 -57 469 -57 437 0 443 1 469 57 7 16 11 158 11 424
0 436 -1 442 -57 468 -32 14 -819 14 -849 0z m406 -77 c0 -48 0 -48 -29 -44
-63 9 -131 -53 -131 -118 0 -65 68 -127 131 -118 29 4 29 4 29 -44 l0 -48 -86
0 -85 0 20 -26 c25 -31 26 -55 6 -93 -23 -46 -78 -54 -119 -16 -32 29 -34 66
-5 106 l20 29 -85 0 -86 0 0 190 c0 177 1 191 20 210 19 19 33 20 210 20 l190
0 0 -48z m440 28 c19 -19 20 -33 20 -210 l0 -190 -47 0 -48 0 0 45 c-1 85 -89
138 -169 100 -40 -19 -70 -73 -64 -116 4 -29 4 -29 -44 -29 l-48 0 0 87 c0 84
-1 86 -19 69 -10 -9 -34 -19 -52 -22 -27 -5 -40 -1 -62 20 -74 69 19 176 103
116 l30 -21 0 85 0 86 190 0 c177 0 191 -1 210 -20z m-765 -486 c1 -40 5 -50
38 -80 39 -36 71 -42 124 -24 38 14 77 80 71 121 -4 29 -4 29 44 29 l48 0 0
-86 0 -85 26 20 c36 28 75 26 109 -5 23 -21 27 -31 22 -61 -8 -46 -22 -61 -63
-69 -25 -5 -40 -1 -64 16 l-30 21 0 -85 0 -86 -190 0 c-177 0 -191 1 -210 20
-19 19 -20 33 -20 210 l0 190 48 0 47 0 0 -46z"/>
</g>
</svg>
