<svg width="44" height="44" fill="none" xmlns="http://www.w3.org/2000/svg"><path d="M36.667 14.667H7.333c-1.012 0-1.833.82-1.833 1.833v3.667C5.5 21.179 6.32 22 7.333 22h29.334c1.012 0 1.833-.82 1.833-1.833V16.5c0-1.012-.82-1.833-1.833-1.833zm-14.667 0V38.5" stroke="#000" stroke-width="3" stroke-linecap="round" stroke-linejoin="round"/><path d="M34.833 22v12.833a3.667 3.667 0 01-3.666 3.667H12.833a3.667 3.667 0 01-3.666-3.667V22m4.583-7.333a4.583 4.583 0 110-9.167c1.769-.03 3.502.827 4.973 2.462 1.472 1.636 2.614 3.972 3.277 6.705.663-2.733 1.805-5.07 3.277-6.705C26.748 6.327 28.48 5.47 30.25 5.5a4.583 4.583 0 110 9.167" stroke="#000" stroke-width="3" stroke-linecap="round" stroke-linejoin="round"/></svg>