<svg width="223" height="159" fill="none" xmlns="http://www.w3.org/2000/svg"><g filter="url(#filter0_d_601_3015)"><path d="M45.267 55.282v1h7.635c2.218 0 4.222-.491 5.981-1.502 1.771-1.011 3.144-2.452 4.107-4.299.963-1.844 1.43-3.934 1.43-6.244v-2.239c0-2.3-.473-4.39-1.446-6.244-.962-1.853-2.32-3.296-4.072-4.298-1.744-1.008-3.702-1.503-5.85-1.503h-7.785v25.33zm7.651-2.737h-3.6V33.706h3.765c2.238.01 3.965.76 5.279 2.211 1.32 1.458 2.025 3.438 2.025 6.047v2.138c0 2.715-.72 4.752-2.057 6.229-1.332 1.46-3.101 2.212-5.412 2.212z" fill="#fff" stroke="#000" stroke-width="2"/><path fill-rule="evenodd" clip-rule="evenodd" d="M45.314 56.235V30h7.738c2.14 0 4.09.493 5.826 1.497 1.744.998 3.096 2.433 4.054 4.279.969 1.846 1.442 3.928 1.442 6.222v2.24c0 2.303-.467 4.385-1.425 6.222-.96 1.838-2.326 3.272-4.089 4.279-1.751 1.006-3.747 1.496-5.958 1.496h-7.588zm13.072-2.323c1.6-.913 2.84-2.211 3.718-3.893.878-1.682 1.317-3.61 1.317-5.782v-2.239c0-2.161-.445-4.088-1.334-5.782-.878-1.693-2.106-2.99-3.684-3.893-1.578-.914-3.362-1.37-5.351-1.37h-6.785v24.33h6.635c2.067 0 3.895-.457 5.484-1.37zm-10.069-.367V32.706h4.768c2.49.011 4.496.858 6.018 2.54 1.523 1.682 2.284 3.921 2.284 6.718v2.138c0 2.897-.772 5.197-2.317 6.902-1.545 1.693-3.596 2.54-6.152 2.54h-4.6zm4.766-19.885H49.27v18.932h3.648c2.322 0 4.105-.758 5.447-2.228 1.347-1.487 2.07-3.538 2.07-6.26v-2.14c0-2.617-.709-4.609-2.038-6.078-1.324-1.462-3.064-2.216-5.314-2.226z" fill="#fff"/><mask id="path-3-outside-1_601_3015" maskUnits="userSpaceOnUse" x="34" y="66.073" width="40" height="13" fill="#000"><path fill="#fff" d="M34 66.073h40v13H34z"/><path d="M35 78.221V67.654h3.037c.89 0 1.688.199 2.395.595a4.093 4.093 0 011.649 1.691c.398.736.597 1.573.597 2.511v.973c0 .943-.197 1.78-.59 2.511a4.125 4.125 0 01-1.664 1.691c-.711.397-1.53.595-2.454.595H35zm.918-9.805v9.05h2.059c1.144 0 2.062-.367 2.753-1.103.692-.74 1.037-1.74 1.037-2.997v-.93c0-1.214-.34-2.186-1.022-2.917-.681-.73-1.58-1.098-2.693-1.103h-2.134zm12.012 9.95a3.599 3.599 0 01-1.865-.493 3.414 3.414 0 01-1.29-1.372c-.31-.59-.463-1.25-.463-1.981v-.312c0-.755.149-1.435.447-2.04a3.523 3.523 0 011.261-1.422 3.148 3.148 0 011.746-.523c.98 0 1.756.327 2.328.98.577.648.865 1.536.865 2.664v.486H45.2v.167c0 .89.262 1.633.784 2.228a2.55 2.55 0 001.985.885c.477 0 .897-.084 1.26-.254.369-.17.702-.44 1-.813l.56.414c-.657.924-1.61 1.386-2.858 1.386zm-.164-7.402c-.671 0-1.238.24-1.701.718-.458.48-.736 1.123-.836 1.93h4.843v-.094c-.025-.755-.247-1.369-.664-1.843-.418-.474-.965-.711-1.642-.711zm.992-3.89h1.082l-1.723 2.032h-.784l1.425-2.032zm6.924 10.559c.622 0 1.142-.17 1.56-.508.423-.343.652-.786.686-1.328h.858a2.433 2.433 0 01-.462 1.314 2.886 2.886 0 01-1.134.921 3.46 3.46 0 01-1.508.334c-1.059 0-1.9-.358-2.521-1.074-.617-.716-.926-1.679-.926-2.888v-.262c0-.774.14-1.458.418-2.053a3.172 3.172 0 011.194-1.38c.522-.324 1.132-.486 1.828-.486.885 0 1.614.257 2.186.77.577.513.886 1.187.925 2.025h-.858c-.04-.615-.268-1.11-.686-1.488-.413-.378-.935-.566-1.567-.566-.806 0-1.432.283-1.88.849-.443.566-.664 1.36-.664 2.38v.254c0 1.002.221 1.783.664 2.344.447.562 1.077.842 1.887.842zm4.403-3.454c0-.755.149-1.435.447-2.04a3.387 3.387 0 011.276-1.408 3.51 3.51 0 011.873-.508c1.074 0 1.945.368 2.611 1.103.667.731 1 1.701 1 2.91v.182c0 .76-.152 1.444-.455 2.054a3.29 3.29 0 01-1.268 1.4c-.548.33-1.172.494-1.873.494-1.07 0-1.94-.365-2.612-1.096-.666-.735-1-1.707-1-2.917v-.174zm.895.24c0 .938.249 1.71.746 2.314.502.6 1.159.9 1.97.9.806 0 1.457-.3 1.955-.9.502-.605.753-1.4.753-2.387v-.167a3.9 3.9 0 00-.343-1.648c-.229-.498-.55-.883-.963-1.154a2.493 2.493 0 00-1.417-.413c-.796 0-1.445.304-1.947.914-.503.605-.754 1.398-.754 2.38v.16zm11.893-3.31a3.432 3.432 0 00-.604-.051c-.557 0-1.03.152-1.418.457-.383.3-.656.738-.82 1.314v5.392h-.889v-7.853h.874l.014 1.249c.473-.93 1.231-1.394 2.276-1.394.249 0 .445.032.59.095l-.023.79z"/></mask><path d="M35 78.221V67.654h3.037c.89 0 1.688.199 2.395.595a4.093 4.093 0 011.649 1.691c.398.736.597 1.573.597 2.511v.973c0 .943-.197 1.78-.59 2.511a4.125 4.125 0 01-1.664 1.691c-.711.397-1.53.595-2.454.595H35zm.918-9.805v9.05h2.059c1.144 0 2.062-.367 2.753-1.103.692-.74 1.037-1.74 1.037-2.997v-.93c0-1.214-.34-2.186-1.022-2.917-.681-.73-1.58-1.098-2.693-1.103h-2.134zm12.012 9.95a3.599 3.599 0 01-1.865-.493 3.414 3.414 0 01-1.29-1.372c-.31-.59-.463-1.25-.463-1.981v-.312c0-.755.149-1.435.447-2.04a3.523 3.523 0 011.261-1.422 3.148 3.148 0 011.746-.523c.98 0 1.756.327 2.328.98.577.648.865 1.536.865 2.664v.486H45.2v.167c0 .89.262 1.633.784 2.228a2.55 2.55 0 001.985.885c.477 0 .897-.084 1.26-.254.369-.17.702-.44 1-.813l.56.414c-.657.924-1.61 1.386-2.858 1.386zm-.164-7.402c-.671 0-1.238.24-1.701.718-.458.48-.736 1.123-.836 1.93h4.843v-.094c-.025-.755-.247-1.369-.664-1.843-.418-.474-.965-.711-1.642-.711zm.992-3.89h1.082l-1.723 2.032h-.784l1.425-2.032zm6.924 10.559c.622 0 1.142-.17 1.56-.508.423-.343.652-.786.686-1.328h.858a2.433 2.433 0 01-.462 1.314 2.886 2.886 0 01-1.134.921 3.46 3.46 0 01-1.508.334c-1.059 0-1.9-.358-2.521-1.074-.617-.716-.926-1.679-.926-2.888v-.262c0-.774.14-1.458.418-2.053a3.172 3.172 0 011.194-1.38c.522-.324 1.132-.486 1.828-.486.885 0 1.614.257 2.186.77.577.513.886 1.187.925 2.025h-.858c-.04-.615-.268-1.11-.686-1.488-.413-.378-.935-.566-1.567-.566-.806 0-1.432.283-1.88.849-.443.566-.664 1.36-.664 2.38v.254c0 1.002.221 1.783.664 2.344.447.562 1.077.842 1.887.842zm4.403-3.454c0-.755.149-1.435.447-2.04a3.387 3.387 0 011.276-1.408 3.51 3.51 0 011.873-.508c1.074 0 1.945.368 2.611 1.103.667.731 1 1.701 1 2.91v.182c0 .76-.152 1.444-.455 2.054a3.29 3.29 0 01-1.268 1.4c-.548.33-1.172.494-1.873.494-1.07 0-1.94-.365-2.612-1.096-.666-.735-1-1.707-1-2.917v-.174zm.895.24c0 .938.249 1.71.746 2.314.502.6 1.159.9 1.97.9.806 0 1.457-.3 1.955-.9.502-.605.753-1.4.753-2.387v-.167a3.9 3.9 0 00-.343-1.648c-.229-.498-.55-.883-.963-1.154a2.493 2.493 0 00-1.417-.413c-.796 0-1.445.304-1.947.914-.503.605-.754 1.398-.754 2.38v.16zm11.893-3.31a3.432 3.432 0 00-.604-.051c-.557 0-1.03.152-1.418.457-.383.3-.656.738-.82 1.314v5.392h-.889v-7.853h.874l.014 1.249c.473-.93 1.231-1.394 2.276-1.394.249 0 .445.032.59.095l-.023.79z" fill="#fff"/><path d="M35 78.221V67.654h3.037c.89 0 1.688.199 2.395.595a4.093 4.093 0 011.649 1.691c.398.736.597 1.573.597 2.511v.973c0 .943-.197 1.78-.59 2.511a4.125 4.125 0 01-1.664 1.691c-.711.397-1.53.595-2.454.595H35zm.918-9.805v9.05h2.059c1.144 0 2.062-.367 2.753-1.103.692-.74 1.037-1.74 1.037-2.997v-.93c0-1.214-.34-2.186-1.022-2.917-.681-.73-1.58-1.098-2.693-1.103h-2.134zm12.012 9.95a3.599 3.599 0 01-1.865-.493 3.414 3.414 0 01-1.29-1.372c-.31-.59-.463-1.25-.463-1.981v-.312c0-.755.149-1.435.447-2.04a3.523 3.523 0 011.261-1.422 3.148 3.148 0 011.746-.523c.98 0 1.756.327 2.328.98.577.648.865 1.536.865 2.664v.486H45.2v.167c0 .89.262 1.633.784 2.228a2.55 2.55 0 001.985.885c.477 0 .897-.084 1.26-.254.369-.17.702-.44 1-.813l.56.414c-.657.924-1.61 1.386-2.858 1.386zm-.164-7.402c-.671 0-1.238.24-1.701.718-.458.48-.736 1.123-.836 1.93h4.843v-.094c-.025-.755-.247-1.369-.664-1.843-.418-.474-.965-.711-1.642-.711zm.992-3.89h1.082l-1.723 2.032h-.784l1.425-2.032zm6.924 10.559c.622 0 1.142-.17 1.56-.508.423-.343.652-.786.686-1.328h.858a2.433 2.433 0 01-.462 1.314 2.886 2.886 0 01-1.134.921 3.46 3.46 0 01-1.508.334c-1.059 0-1.9-.358-2.521-1.074-.617-.716-.926-1.679-.926-2.888v-.262c0-.774.14-1.458.418-2.053a3.172 3.172 0 011.194-1.38c.522-.324 1.132-.486 1.828-.486.885 0 1.614.257 2.186.77.577.513.886 1.187.925 2.025h-.858c-.04-.615-.268-1.11-.686-1.488-.413-.378-.935-.566-1.567-.566-.806 0-1.432.283-1.88.849-.443.566-.664 1.36-.664 2.38v.254c0 1.002.221 1.783.664 2.344.447.562 1.077.842 1.887.842zm4.403-3.454c0-.755.149-1.435.447-2.04a3.387 3.387 0 011.276-1.408 3.51 3.51 0 011.873-.508c1.074 0 1.945.368 2.611 1.103.667.731 1 1.701 1 2.91v.182c0 .76-.152 1.444-.455 2.054a3.29 3.29 0 01-1.268 1.4c-.548.33-1.172.494-1.873.494-1.07 0-1.94-.365-2.612-1.096-.666-.735-1-1.707-1-2.917v-.174zm.895.24c0 .938.249 1.71.746 2.314.502.6 1.159.9 1.97.9.806 0 1.457-.3 1.955-.9.502-.605.753-1.4.753-2.387v-.167a3.9 3.9 0 00-.343-1.648c-.229-.498-.55-.883-.963-1.154a2.493 2.493 0 00-1.417-.413c-.796 0-1.445.304-1.947.914-.503.605-.754 1.398-.754 2.38v.16zm11.893-3.31a3.432 3.432 0 00-.604-.051c-.557 0-1.03.152-1.418.457-.383.3-.656.738-.82 1.314v5.392h-.889v-7.853h.874l.014 1.249c.473-.93 1.231-1.394 2.276-1.394.249 0 .445.032.59.095l-.023.79z" stroke="#fff" stroke-width=".6" mask="url(#path-3-outside-1_601_3015)"/><path d="M106.823 48.138l.12-1.108h-4.065l-.109.877c-.238 1.917-.845 3.217-1.712 4.042-.837.786-2.165 1.264-4.164 1.264-1.866 0-3.29-.699-4.372-2.112-1.096-1.447-1.696-3.45-1.696-6.112v-2.974c0-2.767.619-4.798 1.734-6.214 1.112-1.397 2.573-2.094 4.484-2.094 1.81 0 3.093.469 3.977 1.285.892.822 1.512 2.12 1.749 4.037l.109.878h4.054l-.108-1.098c-.263-2.672-1.222-4.862-2.946-6.464-1.731-1.63-4.05-2.392-6.835-2.392-2.018 0-3.842.502-5.44 1.528-1.59 1.016-2.795 2.46-3.623 4.29-.824 1.821-1.222 3.882-1.222 6.16v3.163c.011 2.246.417 4.283 1.24 6.091v.002c.827 1.802 2.011 3.231 3.563 4.247l.003.002c1.565 1.017 3.353 1.515 5.33 1.515 2.756 0 5.073-.73 6.843-2.287 1.788-1.563 2.788-3.78 3.086-6.526z" fill="#fff" stroke="#000" stroke-width="2"/><path fill-rule="evenodd" clip-rule="evenodd" d="M106.89 47.078l-.114 1.055c-.297 2.738-1.293 4.943-3.07 6.495-1.759 1.548-4.064 2.276-6.813 2.276-1.968 0-3.746-.496-5.303-1.508l-.003-.002c-1.543-1.01-2.722-2.432-3.545-4.226l-.001-.002c-.82-1.801-1.224-3.832-1.236-6.072v-3.163c0-2.273.398-4.326 1.218-6.14.824-1.823 2.024-3.26 3.605-4.27C93.218 30.5 95.033 30 97.043 30c2.776 0 5.083.759 6.803 2.38 1.714 1.593 2.669 3.77 2.931 6.433l.103 1.046h-3.961l-.103-.835c-.238-1.925-.862-3.234-1.764-4.067-.895-.826-2.19-1.297-4.009-1.297-1.924 0-3.4.703-4.52 2.112-1.125 1.426-1.745 3.469-1.745 6.243v2.974c0 2.668.601 4.683 1.705 6.14 1.092 1.426 2.53 2.131 4.41 2.131 2.006 0 3.348-.48 4.197-1.276.877-.836 1.487-2.148 1.726-4.071l.104-.835h3.97zm-5.146 5.598c-1.089 1.024-2.706 1.537-4.85 1.537-2.168 0-3.89-.836-5.169-2.507-1.267-1.67-1.9-3.91-1.9-6.717v-2.974c0-2.908.65-5.186 1.95-6.835 1.312-1.648 3.068-2.473 5.268-2.473 3.968 0 6.207 2.067 6.718 6.2h2.068a13.209 13.209 0 00-.13-.953c-.357-2.034-1.192-3.66-2.504-4.88-1.501-1.414-3.551-2.121-6.152-2.121-1.845 0-3.478.456-4.901 1.37-1.411.902-2.495 2.189-3.25 3.86-.757 1.67-1.134 3.587-1.134 5.748v3.158c.01 2.128.394 4.022 1.15 5.682.756 1.648 1.823 2.924 3.2 3.826 1.39.903 2.985 1.354 4.785 1.354 2.579 0 4.64-.68 6.185-2.039 1.357-1.185 2.228-2.828 2.613-4.929.056-.308.102-.625.138-.953h-2.068c-.255 2.061-.928 3.61-2.017 4.646z" fill="#fff"/><path d="M95.213 71.56c-.685-.77-1.581-1.153-2.676-1.153-.71 0-1.35.176-1.918.531a3.51 3.51 0 00-1.307 1.469h0l6.324 4.4.135.065s0 0 0 0c.309-.633.462-1.34.462-2.12v-.181c0-1.238-.336-2.246-1.02-3.01zm0 0s0 0 0 0l-.112.1.112-.1s0 0 0 0zm12.337 5.312c.309-.633.462-1.34.462-2.12v-.181c0-1.238-.335-2.246-1.02-3.01-.685-.77-1.581-1.154-2.676-1.154a3.55 3.55 0 00-1.918.531 3.51 3.51 0 00-1.307 1.469h-.001c-.304.629-.454 1.331-.454 2.106v.174c0 1.237.335 2.248 1.019 3.017h.001c.69.765 1.586 1.146 2.675 1.146.714 0 1.354-.17 1.917-.515a3.423 3.423 0 001.302-1.463zm0 0s0 0 0 0l-.135-.066m.135.066s0 0 0 0l-.135-.066m0 0a3.27 3.27 0 01-1.245 1.4c-.537.33-1.15.494-1.839.494-1.05 0-1.904-.365-2.564-1.096l.711-6.539a3.397 3.397 0 011.838-.508c1.055 0 1.91.368 2.564 1.103.655.731.982 1.701.982 2.91v.182c0 .76-.149 1.444-.447 2.054zm-19.76-1.53l.017-.166h-1.208l-.016.132c-.11.873-.395 1.508-.84 1.926-.44.41-1.108.627-2.03.627-.907 0-1.62-.342-2.151-1.03-.531-.692-.804-1.629-.804-2.826v-1.291c0-1.242.28-2.194.824-2.875.546-.678 1.273-1.018 2.198-1.018.846 0 1.487.217 1.944.634.458.417.75 1.052.859 1.927l.016.132h1.207l-.017-.165c-.11-1.108-.508-1.99-1.204-2.628-.694-.647-1.636-.962-2.805-.962-.837 0-1.583.205-2.234.618-.647.41-1.142.991-1.485 1.741-.342.749-.512 1.603-.512 2.56v1.372c.005.942.177 1.786.52 2.53h0c.343.739.83 1.316 1.46 1.724h.001c.637.41 1.367.612 2.184.612 1.159 0 2.103-.302 2.816-.922.718-.62 1.134-1.51 1.26-2.651zm6.19-3.44h0c.38.253.678.615.892 1.09.216.478.324 1.006.324 1.587v.167c0 .961-.24 1.72-.706 2.292h0c-.46.565-1.056.845-1.803.845-.752 0-1.354-.28-1.818-.844-.462-.573-.698-1.31-.698-2.22v-.16c0-.957.24-1.715.706-2.286h0c.465-.575 1.06-.86 1.795-.86.495 0 .93.13 1.308.388zm5.036 6.87h.15V67.257h-1.179v11.447h1.03zm6.743-6.87h.001c.379.253.677.615.891 1.09a3.8 3.8 0 01.324 1.587v.167c0 .961-.24 1.72-.706 2.292h0c-.459.565-1.056.845-1.803.845-.752 0-1.354-.28-1.817-.844-.463-.573-.699-1.31-.699-2.22v-.16c0-.957.24-1.715.706-2.286h0c.465-.575 1.06-.86 1.795-.86.495 0 .929.13 1.308.388zm7.69-.246l.172.032.005-.175.022-.791.003-.1-.092-.041c-.169-.075-.385-.108-.64-.108-.536 0-1.007.122-1.407.371a2.47 2.47 0 00-.683.645l-.008-.722-.002-.149h-1.155v8.153h1.171v-5.521c.155-.543.408-.945.75-1.218h0c.351-.28.781-.424 1.298-.424.202 0 .39.016.566.048z" fill="#fff" stroke="#fff" stroke-width=".3"/><path d="M147.702 45.072h.5v-4.644H136.85V34.16h12.969V29.5h-17.925v27.235h18.009v-4.643H136.85v-7.02h10.852z" fill="#fff" stroke="#000"/><path d="M126.024 73.654h.15v-1.042h-5.075v-3.614h5.798V67.95h-7.015v10.68h7.052v-1.041h-5.835v-3.935h4.925zm5.031 1.822l2.172 3.09.045.064h1.423l-.173-.238-2.79-3.84 2.671-3.698.172-.238h-1.43l-.045.064-2.053 2.953-2.053-2.953-.045-.064h-1.422l.171.238 2.672 3.698-2.783 3.84-.173.238h1.423l.045-.064 2.173-3.09zm10.648 2.184h0c.584-.742.867-1.734.867-2.959v-.12c0-1.262-.28-2.268-.859-3.002-.578-.738-1.378-1.105-2.384-1.105-.995 0-1.798.324-2.393.977l-.028-.691-.006-.144h-1.121v10.98h1.187V77.9c.599.584 1.398.872 2.384.872.977 0 1.767-.371 2.353-1.112zm-.932-.702h0c-.387.53-.924.794-1.63.794-.52 0-.962-.111-1.333-.328a2.136 2.136 0 01-.842-.918v-3.634c.197-.442.475-.774.832-1.003.365-.234.805-.354 1.328-.354.711 0 1.254.265 1.646.795.397.536.604 1.278.604 2.242 0 1.072-.209 1.867-.605 2.406zm4.815 1.31h.001a3.79 3.79 0 001.938.505c1.289 0 2.289-.472 2.976-1.424l.088-.121-.121-.088-.559-.407-.115-.083-.09.11a2.611 2.611 0 01-.944.756h0c-.34.156-.738.236-1.197.236-.754 0-1.374-.272-1.871-.82-.494-.553-.744-1.246-.744-2.088v-.014h5.753v-.628c0-1.133-.295-2.045-.903-2.716-.604-.678-1.422-1.012-2.437-1.012-.655 0-1.264.179-1.824.536-.56.353-.998.84-1.313 1.456h0c-.31.618-.463 1.31-.463 2.072v.306c0 .74.159 1.413.479 2.017h.001c.32.6.769 1.069 1.345 1.406zm10.402-6.627l.171.03.005-.173.022-.777.003-.102-.093-.04c-.171-.074-.39-.105-.648-.105-.544 0-1.022.119-1.429.363a2.465 2.465 0 00-.701.642l-.008-.715-.002-.148h-1.17v8.014h1.187v-5.426c.157-.531.413-.925.761-1.193h0c.358-.276.796-.418 1.324-.418.206 0 .399.016.578.048zm3.351-2.85v-.15h-1.194v1.975h-1.483v.999h1.483v4.997c0 .679.142 1.22.451 1.6h0c.317.384.813.56 1.45.56.41 0 .747-.04 1.003-.129l.107-.037-.006-.113-.037-.698-.009-.164-.162.023a5.6 5.6 0 01-.702.07c-.351 0-.569-.097-.694-.255-.13-.171-.207-.45-.207-.864v-4.99h1.669v-.999h-1.669v-1.825zm-14.338 5.012c.112-.688.371-1.232.768-1.642.434-.44.961-.66 1.592-.66.637 0 1.142.217 1.528.648.378.423.589.97.623 1.654h-4.511z" fill="#fff" stroke="#fff" stroke-width=".3"/></g><defs><filter id="filter0_d_601_3015" x=".7" y="-9" width="222.3" height="168" filterUnits="userSpaceOnUse" color-interpolation-filters="sRGB"><feFlood flood-opacity="0" result="BackgroundImageFix"/><feColorMatrix in="SourceAlpha" values="0 0 0 0 0 0 0 0 0 0 0 0 0 0 0 0 0 0 127 0" result="hardAlpha"/><feOffset/><feGaussianBlur stdDeviation="17"/><feColorMatrix values="0 0 0 0 0 0 0 0 0 0 0 0 0 0 0 0 0 0 1 0"/><feBlend in2="BackgroundImageFix" result="effect1_dropShadow_601_3015"/><feBlend in="SourceGraphic" in2="effect1_dropShadow_601_3015" result="shape"/></filter></defs></svg>